<svg width="80" height="80" viewBox="0 0 80 80" fill="none" xmlns="http://www.w3.org/2000/svg">
<path d="M40 0L48.2822 9.09037L60 5.35898L62.6274 17.3726L74.641 20L70.9096 31.7178L80 40L70.9096 48.2822L74.641 60L62.6274 62.6274L60 74.641L48.2822 70.9096L40 80L31.7178 70.9096L20 74.641L17.3726 62.6274L5.35898 60L9.09037 48.2822L0 40L9.09037 31.7178L5.35898 20L17.3726 17.3726L20 5.35898L31.7178 9.09037L40 0Z" fill="#19083B"/>
<path d="M37.968 48.696C38.672 48.696 39.216 48.8773 39.6 49.24C40.0053 49.5813 40.208 50.0613 40.208 50.68C40.208 50.8507 40.1867 51.0213 40.144 51.192C40.1227 51.384 40.0907 51.544 40.048 51.672C39.7707 51.6293 39.4613 51.5867 39.12 51.544C38.7787 51.5227 38.3733 51.512 37.904 51.512C37.264 51.512 36.6027 51.5547 35.92 51.64C35.2587 51.7253 34.608 51.8107 33.968 51.896C33.328 52.0027 32.7093 52.0987 32.112 52.184C31.5147 52.2693 30.96 52.312 30.448 52.312C29.616 52.312 28.9013 52.152 28.304 51.832C27.7067 51.512 27.3013 51.0747 27.088 50.52C27.1733 50.4347 27.376 50.3493 27.696 50.264C28.0373 50.1573 28.4427 50.0507 28.912 49.944C29.4027 49.816 29.9467 49.6987 30.544 49.592C31.1627 49.4853 31.792 49.3787 32.432 49.272C32.7307 47.992 33.0613 46.68 33.424 45.336C33.808 43.9707 34.192 42.616 34.576 41.272C34.9813 39.9067 35.3973 38.5627 35.824 37.24C36.2507 35.9173 36.6773 34.6373 37.104 33.4C36.3787 33.7413 35.6213 34.2 34.832 34.776C34.064 35.3307 33.4027 35.8533 32.848 36.344C32.6133 36.216 32.496 35.928 32.496 35.48C33.2853 34.4133 34.0853 33.464 34.896 32.632C35.7067 31.8 36.6027 30.9147 37.584 29.976C37.8187 29.7413 38.096 29.4107 38.416 28.984C38.7573 28.5573 39.0453 28.1307 39.28 27.704C39.5787 27.7893 39.952 27.8853 40.4 27.992C40.848 28.0773 41.2853 28.1947 41.712 28.344C42.16 28.472 42.5547 28.632 42.896 28.824C43.2587 29.016 43.504 29.24 43.632 29.496C43.3547 29.7307 43.0987 29.976 42.864 30.232C42.6507 30.488 42.4587 30.7653 42.288 31.064C41.8613 31.832 41.36 32.9093 40.784 34.296C40.2293 35.6613 39.6533 37.1653 39.056 38.808C38.48 40.4293 37.8933 42.1253 37.296 43.896C36.72 45.6453 36.1973 47.288 35.728 48.824C36.176 48.7813 36.5813 48.7493 36.944 48.728C37.328 48.7067 37.6693 48.696 37.968 48.696ZM48.5177 33.3584C48.5049 33.6016 48.4601 33.8576 48.3833 34.1264C48.3193 34.3824 48.2361 34.6192 48.1337 34.8368C48.0313 35.0416 47.9225 35.2144 47.8073 35.3552C47.6921 35.496 47.5833 35.5664 47.4809 35.5664C47.3401 35.5536 47.2569 35.4576 47.2313 35.2784C47.2313 35.24 47.2441 35.1824 47.2697 35.1056C47.3081 35.016 47.3465 34.92 47.3849 34.8176C47.4233 34.7152 47.4553 34.6128 47.4809 34.5104C47.5193 34.408 47.5385 34.3184 47.5385 34.2416C47.5385 34.0624 47.4937 33.9152 47.4041 33.8C47.3273 33.672 47.2185 33.608 47.0777 33.608C46.5657 33.608 46.1753 33.928 45.9065 34.568C45.6377 35.208 45.5033 36.1488 45.5033 37.3904C45.5033 37.5184 45.5097 37.5952 45.5225 37.6208C45.7913 37.608 46.0281 37.6016 46.2329 37.6016C46.4505 37.5888 46.6617 37.5824 46.8665 37.5824C46.8793 37.608 46.8857 37.6592 46.8857 37.736C46.8857 37.8512 46.8601 37.9344 46.8089 37.9856C46.5145 38.0496 46.2777 38.1072 46.0985 38.1584C45.9321 38.1968 45.8041 38.2352 45.7145 38.2736C45.6249 38.312 45.5673 38.3568 45.5417 38.408C45.5289 38.4464 45.5225 38.504 45.5225 38.5808C45.5225 38.6832 45.5225 38.7856 45.5225 38.888C45.5353 38.9904 45.5417 39.1184 45.5417 39.272C45.5417 40.3472 45.2473 41.2112 44.6585 41.864C44.0825 42.5168 43.2761 42.8944 42.2393 42.9968C42.0601 42.984 41.8745 42.9328 41.6825 42.8432C41.4905 42.7536 41.3049 42.6384 41.1257 42.4976C40.9593 42.3568 40.8121 42.1968 40.6841 42.0176C40.5561 41.8512 40.4665 41.6784 40.4153 41.4992C40.4153 41.0128 40.5177 40.552 40.7225 40.1168C40.9273 39.6688 41.2025 39.2784 41.5481 38.9456C41.9065 38.6 42.3225 38.3248 42.7961 38.12C43.2825 37.9024 43.8073 37.7744 44.3705 37.736C44.3705 37.416 44.3385 37.1024 44.2745 36.7952C44.2105 36.488 44.1401 36.1936 44.0633 35.912C43.9993 35.6176 43.9353 35.336 43.8713 35.0672C43.8073 34.7856 43.7753 34.5104 43.7753 34.2416C43.7753 33.896 43.8457 33.5568 43.9865 33.224C44.1273 32.8784 44.3129 32.5648 44.5433 32.2832C44.7737 31.9888 45.0425 31.7392 45.3497 31.5344C45.6569 31.3296 45.9769 31.1888 46.3097 31.112C46.4505 31.1504 46.6361 31.2656 46.8665 31.4576C47.1097 31.6368 47.3465 31.8416 47.5769 32.072C47.8073 32.3024 48.0121 32.5392 48.1913 32.7824C48.3705 33.0128 48.4793 33.2048 48.5177 33.3584ZM42.1817 42.1136C42.4889 41.9856 42.7769 41.8 43.0457 41.5568C43.3273 41.3136 43.5705 41.0384 43.7753 40.7312C43.9801 40.424 44.1401 40.0976 44.2553 39.752C44.3833 39.4064 44.4473 39.0672 44.4473 38.7344C44.1913 38.7728 43.9097 38.8944 43.6025 39.0992C43.2953 39.2912 43.0073 39.528 42.7385 39.8096C42.4697 40.0784 42.2457 40.36 42.0665 40.6544C41.8873 40.9488 41.7977 41.2048 41.7977 41.4224C41.7977 41.704 41.9257 41.9344 42.1817 42.1136ZM50.24 33.6464C50.176 33.5696 50.1184 33.4096 50.0672 33.1664C50.016 32.9104 49.9904 32.6928 49.9904 32.5136C50.3232 32.5392 50.6432 32.5648 50.9504 32.5904C51.2576 32.6032 51.5392 32.616 51.7952 32.6288C51.9872 32.2448 52.192 31.8672 52.4096 31.496C52.64 31.112 52.8576 30.7664 53.0624 30.4592C53.28 30.1392 53.4784 29.8704 53.6576 29.6528C53.8496 29.4352 53.9968 29.2944 54.0992 29.2304C54.2272 29.2304 54.3872 29.256 54.5792 29.3072C54.784 29.3456 54.9888 29.4032 55.1936 29.48C55.3984 29.544 55.584 29.6144 55.7504 29.6912C55.9168 29.768 56.032 29.8448 56.096 29.9216C55.712 30.408 55.3792 30.8624 55.0976 31.2848C54.8288 31.6944 54.5344 32.168 54.2144 32.7056C54.4704 32.7056 54.7264 32.6992 54.9824 32.6864C55.2512 32.6736 55.52 32.6544 55.7888 32.6288C55.8528 32.6928 55.904 32.776 55.9424 32.8784C55.9808 32.968 56 33.064 56 33.1664C55.3728 33.3968 54.6112 33.5248 53.7152 33.5504C53.3952 34.1648 53.1072 34.7792 52.8512 35.3936C52.608 35.9952 52.3968 36.5776 52.2176 37.1408C52.0512 37.704 51.9168 38.2352 51.8144 38.7344C51.7248 39.2336 51.68 39.6816 51.68 40.0784C51.68 40.6416 51.8912 40.9552 52.3136 41.0192C52.6976 40.968 53.0624 40.872 53.408 40.7312C53.7536 40.5904 54.0608 40.4112 54.3296 40.1936C54.4064 40.3088 54.4512 40.4048 54.464 40.4816C54.3872 40.5968 54.2528 40.7312 54.0608 40.8848C53.8816 41.0384 53.6832 41.1856 53.4656 41.3264C53.248 41.48 53.0368 41.608 52.832 41.7104C52.6272 41.8128 52.4736 41.8704 52.3712 41.8832C52.0512 41.8704 51.7312 41.8 51.4112 41.672C51.0912 41.544 50.7968 41.384 50.528 41.192C50.272 41 50.0608 40.7888 49.8944 40.5584C49.728 40.3152 49.6448 40.0784 49.6448 39.848C49.6448 39.5408 49.6832 39.1568 49.76 38.696C49.8496 38.2224 49.9712 37.7104 50.1248 37.16C50.2784 36.6096 50.4576 36.0336 50.6624 35.432C50.8672 34.8304 51.0912 34.2352 51.3344 33.6464H50.24Z" fill="white"/>
</svg>
