<svg width="47" height="35" viewBox="0 0 47 35" fill="none" xmlns="http://www.w3.org/2000/svg">
<path fill-rule="evenodd" clip-rule="evenodd" d="M-0.00032711 17.5001C-0.00032711 18.0158 0.184046 18.5104 0.512235 18.875C0.840423 19.2397 1.28554 19.4446 1.74967 19.4446H23.333V15.5557L1.74967 15.5557C0.783673 15.5557 -0.00032711 16.4268 -0.00032711 17.5001Z" fill="#111111"/>
<path d="M23.3337 1.94292C23.3341 1.55856 23.4711 1.18292 23.7276 0.86344C23.984 0.543961 24.3483 0.294975 24.7745 0.147931C25.2006 0.000887614 25.6695 -0.0376197 26.1219 0.0372731C26.5743 0.112166 26.9899 0.297099 27.3162 0.568716L45.9845 16.1258C46.4215 16.4904 46.667 16.9847 46.667 17.5C46.667 18.0153 46.4215 18.5096 45.9845 18.8742L27.3162 34.4313C26.9899 34.7029 26.5743 34.8878 26.1219 34.9627C25.6695 35.0376 25.2006 34.9991 24.7745 34.8521C24.3483 34.705 23.984 34.456 23.7276 34.1366C23.4711 33.8171 23.3341 33.4414 23.3337 33.0571L23.3337 1.94292Z" fill="#111111"/>
</svg>
