<svg width="52" height="48" viewBox="0 0 52 48" fill="none" xmlns="http://www.w3.org/2000/svg">
<g filter="url(#filter0_i_2087_37)">
<path d="M26.0012 48L24.8762 47.25C19.5287 43.6787 12.7625 39.6425 7.75122 33.71C2.46997 27.46 -0.0637809 21.0412 0.00121905 14.085C0.079969 6.3175 6.30872 0 13.8862 0C19.9 0 23.8987 3.5 26.0012 6.02625C28.1037 3.5 32.1025 0 38.1162 0C45.6937 0 51.9225 6.3175 52.0012 14.0812C52.0712 21.0412 49.5375 27.4562 44.2512 33.7062C39.24 39.6425 32.4737 43.6787 27.1262 47.25L26.0012 48Z" fill="#EF2A5F"/>
</g>
<defs>
<filter id="filter0_i_2087_37" x="-4" y="-3" width="56.0029" height="51" filterUnits="userSpaceOnUse" color-interpolation-filters="sRGB">
<feFlood flood-opacity="0" result="BackgroundImageFix"/>
<feBlend mode="normal" in="SourceGraphic" in2="BackgroundImageFix" result="shape"/>
<feColorMatrix in="SourceAlpha" type="matrix" values="0 0 0 0 0 0 0 0 0 0 0 0 0 0 0 0 0 0 127 0" result="hardAlpha"/>
<feOffset dx="-6" dy="-3"/>
<feGaussianBlur stdDeviation="2"/>
<feComposite in2="hardAlpha" operator="arithmetic" k2="-1" k3="1"/>
<feColorMatrix type="matrix" values="0 0 0 0 0.760104 0 0 0 0 0 0 0 0 0 0.204495 0 0 0 1 0"/>
<feBlend mode="normal" in2="shape" result="effect1_innerShadow_2087_37"/>
</filter>
</defs>
</svg>
