<svg width="78" height="74" viewBox="0 0 78 74" fill="none" xmlns="http://www.w3.org/2000/svg">
<path d="M26.5924 53.796C28.0806 54.9507 29.3704 54.7763 29.6205 53.3667C29.8591 52.0618 27.5788 49.8989 26.7781 50.6936C25.9397 51.5329 25.838 53.2195 26.5924 53.796Z" fill="black"/>
<path d="M37.7471 69.8396C37.9644 70.6699 40.739 71.6091 41.2922 71.0638C42.3986 69.9733 41.9702 68.6228 40.2085 67.6576C38.2974 66.6433 37.1615 67.6328 37.7471 69.8396Z" fill="black"/>
<path d="M17.3457 58.3926C17.7739 59.2667 19.7885 59.5677 20.3274 58.858C21.1443 57.772 20.8392 56.8872 19.3277 55.9416C17.8144 54.9756 16.4669 56.6256 17.3457 58.3926Z" fill="black"/>
<path d="M49.1819 65.6636C49.6602 66.1605 51.1741 66.8987 51.6469 66.8576C53.3737 66.7073 52.3476 63.4825 50.2829 62.6059C49.272 62.176 48.339 64.7842 49.1819 65.6636Z" fill="black"/>
<path d="M14.5947 12.9757C14.854 14.0509 17.1746 14.5324 17.6974 13.6377C18.1657 12.8306 17.9768 12.329 16.7996 11.4165C14.952 9.94098 14.1701 11.1899 14.5947 12.9757Z" fill="black"/>
<path d="M71.7363 46.2794C74.3347 47.8139 75.9927 47.5867 75.8316 45.7366C75.778 45.1199 72.7454 42.8775 72.0464 42.9384C70.7942 43.0681 70.5582 45.5949 71.7363 46.2794Z" fill="black"/>
<path d="M45.5793 43.0568C46.1827 44.0399 49.1491 44.5688 49.4922 43.7519C49.956 42.6551 49.0603 41.4074 47.0894 40.4191C45.8774 39.8203 44.7811 41.7385 45.5793 43.0568Z" fill="black"/>
<path d="M60.0068 55.4019C62.7411 57.5459 64.703 57.4787 64.5079 55.238C64.4418 54.4774 62.3921 52.5845 60.9933 51.9813C59.7044 51.4513 58.8296 54.4894 60.0068 55.4019Z" fill="black"/>
<path d="M39.1229 48.7787C38.6797 49.8736 38.9061 50.8067 39.7079 51.2133C42.9355 52.838 43.9498 50.4506 40.8732 48.4192C39.9042 47.7579 39.4983 47.8553 39.1229 48.7787Z" fill="black"/>
<path d="M32.0971 39.0791C31.3785 39.3902 30.9532 41.1671 31.4117 41.9143C31.7738 42.5042 34.6816 43.3075 35.0623 42.9222C36.0937 41.9211 33.4332 38.4864 32.0971 39.0791Z" fill="black"/>
<path d="M44.5426 16.587C46.0308 17.7417 47.3206 17.5673 47.5707 16.1577C47.8093 14.8528 45.529 12.69 44.7282 13.4846C43.8899 14.3239 43.7882 16.0105 44.5426 16.587Z" fill="black"/>
<path d="M8.22464 39.0466C8.4419 39.8769 11.2165 40.8161 11.7697 40.2708C12.8762 39.1803 12.4477 37.8298 10.686 36.8647C8.77498 35.8503 7.63904 36.8399 8.22464 39.0466Z" fill="black"/>
<path d="M4.38577 55.7283C4.60303 56.5586 7.37766 57.4977 7.93088 56.9525C9.03732 55.862 8.60888 54.5115 6.84713 53.5463C4.93612 52.532 3.80017 53.5215 4.38577 55.7283Z" fill="black"/>
<path d="M5.66898 26.2175C5.88623 27.0478 8.66086 27.987 9.21408 27.4417C10.3205 26.3512 9.89208 25.0007 8.13034 24.0356C6.21932 23.0212 5.08337 24.0108 5.66898 26.2175Z" fill="black"/>
<path d="M18.6162 42.9932C19.0444 43.8673 21.059 44.1683 21.5979 43.4586C22.4148 42.3726 22.1097 41.4878 20.5982 40.5422C19.0849 39.5761 17.7374 41.2262 18.6162 42.9932Z" fill="black"/>
<path d="M23.8401 17.7007C24.3184 18.1976 25.8323 18.9358 26.3051 18.8947C28.0319 18.7444 27.0058 15.5196 24.9411 14.643C23.9302 14.2131 22.9972 16.8213 23.8401 17.7007Z" fill="black"/>
<path d="M35.1113 5.27547C35.3706 6.35069 37.6912 6.83225 38.214 5.93752C38.6823 5.13038 38.4934 4.62879 37.3162 3.71631C35.4686 2.24079 34.6867 3.48969 35.1113 5.27547Z" fill="black"/>
<path d="M20.3994 30.882C22.9978 32.4164 24.6558 32.1893 24.4947 30.3391C24.4411 29.7224 21.4084 27.4801 20.7095 27.5409C19.4573 27.6706 19.2213 30.1974 20.3994 30.882Z" fill="black"/>
<path d="M34.0188 30.2257C34.6222 31.2088 37.5885 31.7378 37.9317 30.9208C38.3955 29.8241 37.4998 28.5764 35.5289 27.588C34.3168 26.9892 33.2205 28.9074 34.0188 30.2257Z" fill="black"/>
<path d="M56.1386 33.5865C58.8729 35.7305 60.8348 35.6633 60.6398 33.4226C60.5736 32.6619 58.524 30.769 57.1251 30.1658C55.8362 29.6359 54.9614 32.674 56.1386 33.5865Z" fill="black"/>
<path d="M42.9569 28.2455C42.5137 29.3404 42.7401 30.2735 43.5418 30.6801C46.7695 32.3048 47.7838 29.9174 44.7071 27.886C43.7382 27.2247 43.3322 27.3221 42.9569 28.2455Z" fill="black"/>
<path d="M68.0053 21.1103C67.2867 21.4214 66.8614 23.1984 67.3199 23.9455C67.682 24.5354 70.5898 25.3387 70.9705 24.9534C72.0019 23.9523 69.3415 20.5177 68.0053 21.1103Z" fill="black"/>
</svg>
